# xmcd CD database file
#
# Track frame offsets:
#	150
#	24545
#	50046
#	69229
#	94923
#	118489
#	132631
#	146172
#	158957
#	177599
#	199792
#	212141
#	216810
#	244528
#	268587
#	297623
#	329609
#
# Disc length: 4790 seconds
#
# Revision: 0
# Processed by: cddbd v1.5.1PL0 Copyright (c) Steve Scherf et al.
# Submitted via: CDex 1.51
#
DISCID=2112b411
DTITLE=Clifford Brown - Clifford's Axe
DYEAR=1900
DGENRE=Jazz
TTITLE0=Minority
TTITLE1=Salute To The Bandbox
TTITLE2=Strictly Romantic
TTITLE3=Baby
TTITLE4=All Wierd
TTITLE5=Blue and Brown
TTITLE6=I Can Dream, Can't I?
TTITLE7=The Song Is You 
TTITLE8=Come Rain or Come Shine
TTITLE9=It Might As Well Be Spring
TTITLE10=You're a Lucky Guy
TTITLE11=Introduction
TTITLE12=All God's Children Got Rhythm
TTITLE13=Tenderly
TTITLE14=Sunset Eyes
TTITLE15=Clifford's Axe
TTITLE16=Sweet Clifford
EXTD=
EXTT0=
EXTT1=
EXTT2=
EXTT3=
EXTT4=
EXTT5=
EXTT6=
EXTT7=
EXTT8=
EXTT9=
EXTT10=
EXTT11=
EXTT12=
EXTT13=
EXTT14=
EXTT15=
EXTT16=
PLAYORDER=
